# xmcd
#
# Track frame offsets: 
#        150
#        15428
#        32114
#        67363
#        100080
#        129379
#        156223
#
# Disc length: 2426 seconds
#
# Revision: 0
# Processed by: cddbd v1.5.2PL0 Copyright (c) Steve Scherf et al.
# Submitted via: ExactAudioCopy v0.95b4
#
DISCID=56097807
DTITLE=Vicious - Turkish Bazar@Istanbul 2002
DYEAR=2002
DGENRE=
TTITLE0=club radio mix
TTITLE1=radio mix
TTITLE2=club mix
TTITLE3=maxi mix
TTITLE4=lacargo remix
TTITLE5=arne L II and mirko M remix
TTITLE6=beat checkaz remix
EXTD=
EXTT0=
EXTT1=
EXTT2=
EXTT3=
EXTT4=
EXTT5=
EXTT6=
PLAYORDER=
